<svg width="476" height="476" viewBox="0 0 476 476" fill="none" xmlns="http://www.w3.org/2000/svg">
<g clip-path="url(#clip0_1_2)">
<path d="M237.779 475.558C369.101 475.558 475.558 369.101 475.558 237.779C475.558 106.457 369.101 0 237.779 0C106.457 0 0 106.457 0 237.779C0 369.101 106.457 475.558 237.779 475.558Z" fill="blue"/>
<path d="M214.181 240.332C243.61 210.907 273.038 181.479 302.459 152.054C328.125 126.391 288.143 86.713 262.42 112.439C226.391 148.468 190.365 184.494 154.336 220.523C143.448 231.408 143.748 249.546 154.55 260.352C190.579 296.381 226.605 332.41 262.634 368.439C288.3 394.105 327.979 354.123 302.249 328.396C272.888 299.039 243.535 269.686 214.181 240.332Z" fill="white"/>
</g>
<defs>
<clipPath id="clip0_1_2">
<rect width="475.558" height="475.558" fill="white"/>
</clipPath>
</defs>
</svg>