<svg width="476" height="476" viewBox="0 0 476 476" fill="none" xmlns="http://www.w3.org/2000/svg">
<rect width="476" height="476" fill="none"/>
<g clip-path="url(#clip0_0_1)">
<path d="M237.779 475.558C369.101 475.558 475.558 369.101 475.558 237.779C475.558 106.457 369.101 0 237.779 0C106.457 0 0 106.457 0 237.779C0 369.101 106.457 475.558 237.779 475.558Z" fill="blue"/>
<path d="M262.543 238.372C233.114 267.797 203.686 297.225 174.265 326.65C148.599 352.313 188.581 391.991 214.304 366.265C250.333 330.236 286.359 294.21 322.388 258.181C333.276 247.296 332.976 229.158 322.174 218.352C286.145 182.323 250.119 146.294 214.09 110.265C188.424 84.5988 148.745 124.581 174.475 150.308C203.836 179.665 233.189 209.018 262.543 238.372Z" fill="white"/>
</g>
<defs>
<clipPath id="clip0_0_1">
<rect width="475.558" height="475.558" fill="white"/>
</clipPath>
</defs>
</svg>
